<?xml version="1.0" encoding="utf-8"?>
<!DOCTYPE svg PUBLIC "-//W3C//DTD SVG 1.1//EN" "http://www.w3.org/Graphics/SVG/1.1/DTD/svg11.dtd">
<svg version="1.1" id="cellphone_bright_icon" xmlns="http://www.w3.org/2000/svg" xmlns:xlink="http://www.w3.org/1999/xlink" x="0px" y="0px"
	 width="64px" height="64px" viewBox="-0.09 -25.91 64 64" enable-background="new -0.09 -25.91 64 64" xml:space="preserve">
<rect x="19.452" y="-9.67" fill="#999999" width="24.916" height="39.828"/>
<path fill="#CCCCCC" d="M40.535-17.019H25.62l-0.003-4.351c-0.003-1.862-1.504-3.37-3.354-3.369c-1.854,0-3.356,1.512-3.354,3.372
	l0.005,5.461c-3.079,1.606-5.217,4.809-5.217,8.521v17.997c0,5.3,0.862,13.386,1.917,17.966c1.057,4.589,6.231,8.339,11.505,8.339
	h9.58c5.273,0,10.452-3.859,11.504-8.566c1.056-4.715,1.919-12.905,1.919-18.203V-7.384C50.123-12.683,45.813-17.019,40.535-17.019z
	 M31.912,29.573c-2.083,0-3.775-1.698-3.775-3.793c0-2.092,1.692-3.79,3.775-3.79c2.091,0,3.771,1.698,3.771,3.79
	C35.684,27.875,34.003,29.573,31.912,29.573z M43.701,5.193c0,1.057-0.861,1.926-1.917,1.926H22.043
	c-1.053,0-1.917-0.869-1.917-1.926V-6.878c0-1.064,0.864-1.928,1.917-1.928h19.741c1.056,0,1.917,0.866,1.917,1.928V5.193z"/>
</svg>
